{
  "accessors": [
    {
      "bufferView": 2,
      "componentType": 5126,
      "count": 2032,
      "max": [
        31.22889518737793,
        266.44171142578125,
        53.444599151611328
      ],
      "min": [
        -31.22889518737793,
        99.13995361328125,
        -8.644200325012207
      ],
      "type": "VEC3"
    },
    {
      "bufferView": 2,
      "byteOffset": 24384,
      "componentType": 5126,
      "count": 2032,
      "max": [
        1,
        1,
        1
      ],
      "min": [
        -1,
        -1,
        -1
      ],
      "type": "VEC3"
    },
    {
      "bufferView": 3,
      "componentType": 5126,
      "count": 2032,
      "max": [
        1,
        1,
        1,
        1
      ],
      "min": [
        -1,
        -1,
        -1,
        -1
      ],
      "type": "VEC4"
    },
    {
      "bufferView": 1,
      "componentType": 5126,
      "count": 2032,
      "max": [
        0.99509483575820923,
        0.99236500263214111
      ],
      "min": [
        0.0060351947322487831,
        0.010408343747258186
      ],
      "type": "VEC2"
    },
    {
      "bufferView": 0,
      "componentType": 5125,
      "count": 7338,
      "max": [
        2031
      ],
      "min": [
        0
      ],
      "type": "SCALAR"
    },
    {
      "bufferView": 2,
      "byteOffset": 48768,
      "componentType": 5126,
      "count": 25,
      "max": [
        114.31183624267578,
        114.31183624267578,
        0
      ],
      "min": [
        -114.31183624267578,
        -114.31183624267578,
        0
      ],
      "type": "VEC3"
    },
    {
      "bufferView": 2,
      "byteOffset": 49068,
      "componentType": 5126,
      "count": 25,
      "max": [
        0,
        0,
        1
      ],
      "min": [
        0,
        0,
        1
      ],
      "type": "VEC3"
    },
    {
      "bufferView": 3,
      "byteOffset": 32512,
      "componentType": 5126,
      "count": 25,
      "max": [
        1,
        -0,
        -0,
        1
      ],
      "min": [
        1,
        -2.4579239266131481e-07,
        -0,
        1
      ],
      "type": "VEC4"
    },
    {
      "bufferView": 1,
      "byteOffset": 16256,
      "componentType": 5126,
      "count": 25,
      "max": [
        0.83711552619934082,
        0.98500001430511475
      ],
      "min": [
        0.16288450360298157,
        0.015000004321336746
      ],
      "type": "VEC2"
    },
    {
      "bufferView": 0,
      "byteOffset": 29352,
      "componentType": 5125,
      "count": 96,
      "max": [
        24
      ],
      "min": [
        0
      ],
      "type": "SCALAR"
    },
    {
      "bufferView": 2,
      "byteOffset": 49368,
      "componentType": 5126,
      "count": 190,
      "max": [
        26.100315093994141,
        214.96548461914062,
        53.444599151611328
      ],
      "min": [
        -26.100315093994141,
        110.38846588134766,
        21.43145751953125
      ],
      "type": "VEC3"
    },
    {
      "bufferView": 2,
      "byteOffset": 51648,
      "componentType": 5126,
      "count": 190,
      "max": [
        1,
        0.8913080096244812,
        0.99996268749237061
      ],
      "min": [
        -1,
        -0.91647994518280029,
        0.00024139358720276505
      ],
      "type": "VEC3"
    },
    {
      "bufferView": 3,
      "byteOffset": 32912,
      "componentType": 5126,
      "count": 190,
      "max": [
        0.44426116347312927,
        1,
        0.43901047110557556,
        1
      ],
      "min": [
        -1,
        -0.99999910593032837,
        -0.45675566792488098,
        1
      ],
      "type": "VEC4"
    },
    {
      "bufferView": 0,
      "byteOffset": 29736,
      "componentType": 5125,
      "count": 696,
      "max": [
        189
      ],
      "min": [
        0
      ],
      "type": "SCALAR"
    }
  ],
  "asset": {
    "extras": {
      "author": "Kristian LaGrange (https://sketchfab.com/kristian123)",
      "license": "CC-BY-4.0 (http://creativecommons.org/licenses/by/4.0/)",
      "source": "https://sketchfab.com/models/dfe73f34fd304cdf8e3b0b6fa6ab66b3",
      "title": "Car"
    },
    "generator": "Sketchfab-3.19.5",
    "version": "2.0"
  },
  "bufferViews": [
    {
      "buffer": 0,
      "byteLength": 32520,
      "byteOffset": 0,
      "name": "floatBufferViews",
      "target": 34963
    },
    {
      "buffer": 0,
      "byteLength": 16456,
      "byteOffset": 32520,
      "byteStride": 8,
      "name": "floatBufferViews",
      "target": 34962
    },
    {
      "buffer": 0,
      "byteLength": 53928,
      "byteOffset": 48976,
      "byteStride": 12,
      "name": "floatBufferViews",
      "target": 34962
    },
    {
      "buffer": 0,
      "byteLength": 35952,
      "byteOffset": 102904,
      "byteStride": 16,
      "name": "floatBufferViews",
      "target": 34962
    }
  ],
  "buffers": [
    {
      "byteLength": 138856,
      "uri": "scene.bin"
    }
  ],
  "images": [
    {
      "uri": "textures/01_-_Default_baseColor.png"
    },
    {
      "uri": "textures/02_-_Default_baseColor.png"
    }
  ],
  "materials": [
    {
      "alphaMode": "BLEND",
      "doubleSided": true,
      "emissiveFactor": [
        0,
        0,
        0
      ],
      "name": "01_-_Default",
      "pbrMetallicRoughness": {
        "baseColorFactor": [
          1,
          1,
          1,
          1
        ],
        "baseColorTexture": {
          "index": 0,
          "texCoord": 0
        },
        "metallicFactor": 0.52610518289999997,
        "roughnessFactor": 0.53487042679999997
      }
    },
    {
      "alphaMode": "BLEND",
      "doubleSided": true,
      "emissiveFactor": [
        0,
        0,
        0
      ],
      "name": "02_-_Default",
      "pbrMetallicRoughness": {
        "baseColorFactor": [
          1,
          1,
          1,
          1
        ],
        "baseColorTexture": {
          "index": 1,
          "texCoord": 0
        },
        "metallicFactor": 0,
        "roughnessFactor": 1
      }
    },
    {
      "doubleSided": true,
      "emissiveFactor": [
        0,
        0,
        0
      ],
      "name": "03_-_Default",
      "pbrMetallicRoughness": {
        "baseColorFactor": [
          0,
          0,
          0,
          1
        ],
        "metallicFactor": 0,
        "roughnessFactor": 0.89297135959999996
      }
    }
  ],
  "meshes": [
    {
      "name": "Object003_01 - Default_0",
      "primitives": [
        {
          "attributes": {
            "NORMAL": 1,
            "POSITION": 0,
            "TANGENT": 2,
            "TEXCOORD_0": 3
          },
          "indices": 4,
          "material": 0,
          "mode": 4
        }
      ]
    },
    {
      "name": "Plane001_02 - Default_0",
      "primitives": [
        {
          "attributes": {
            "NORMAL": 6,
            "POSITION": 5,
            "TANGENT": 7,
            "TEXCOORD_0": 8
          },
          "indices": 9,
          "material": 1,
          "mode": 4
        }
      ]
    },
    {
      "name": "Object004_03 - Default_0",
      "primitives": [
        {
          "attributes": {
            "NORMAL": 11,
            "POSITION": 10,
            "TANGENT": 12
          },
          "indices": 13,
          "material": 2,
          "mode": 4
        }
      ]
    }
  ],
  "nodes": [
    {
      "children": [
        1
      ],
      "name": "RootNode (gltf orientation matrix)",
      "rotation": [
        -0.70710678118654746,
        -0,
        -0,
        0.70710678118654757
      ]
    },
    {
      "children": [
        2
      ],
      "name": "RootNode (model correction matrix)"
    },
    {
      "children": [
        3
      ],
      "matrix": [
        1,
        0,
        0,
        0,
        0,
        0,
        1,
        0,
        0,
        -1,
        0,
        0,
        0,
        0,
        0,
        1
      ],
      "name": "64ac52f6ea6b499c8f4b7fdca28e7a9e.fbx"
    },
    {
      "children": [
        4,
        7,
        9
      ],
      "name": "RootNode"
    },
    {
      "children": [
        5
      ],
      "matrix": [
        -0.99999999999998868,
        -1.2246469849340659e-16,
        1.5099580265055077e-07,
        0,
        1.5099580265055077e-07,
        -4.4408920985006262e-16,
        0.99999999999998868,
        0,
        -1.2246464555384738e-16,
        1,
        3.3306690738754696e-16,
        0,
        0,
        31.045083999633789,
        0,
        1
      ],
      "name": "Object003"
    },
    {
      "children": [
        6
      ],
      "matrix": [
        1,
        0,
        -0,
        0,
        0,
        1,
        0,
        0,
        0,
        0,
        1,
        0,
        1.0677467798814178e-09,
        -182.79083251953125,
        -22.400199890136719,
        1
      ],
      "name": ""
    },
    {
      "mesh": 0,
      "name": "Object003_01 - Default_0"
    },
    {
      "children": [
        8
      ],
      "matrix": [
        1,
        0,
        0,
        0,
        0,
        2.7697450626601547e-16,
        -1.2473822832107544,
        0,
        0,
        1,
        2.2204460492503131e-16,
        0,
        1.0091230869293213,
        0,
        -4.3765115737915039,
        1
      ],
      "name": "Plane001"
    },
    {
      "mesh": 1,
      "name": "Plane001_02 - Default_0"
    },
    {
      "children": [
        10
      ],
      "matrix": [
        -0.97465336322783325,
        -1.1936063026328264e-16,
        1.4716856342398281e-07,
        0,
        1.4716856342398281e-07,
        -4.3283304195355942e-16,
        0.97465336322783325,
        0,
        -1.1936057866556321e-16,
        0.97465336322784424,
        3.2462478146516957e-16,
        0,
        0,
        30.012424468994141,
        -0.29296588897705078,
        1
      ],
      "name": "Object004"
    },
    {
      "children": [
        11
      ],
      "matrix": [
        1,
        0,
        -0,
        0,
        0,
        1,
        0,
        0,
        0,
        0,
        1,
        0,
        1.0677467798814178e-09,
        -182.79083251953125,
        -22.400199890136719,
        1
      ],
      "name": ""
    },
    {
      "mesh": 2,
      "name": "Object004_03 - Default_0"
    }
  ],
  "samplers": [
    {
      "magFilter": 9729,
      "minFilter": 9987,
      "wrapS": 10497,
      "wrapT": 10497
    }
  ],
  "scene": 0,
  "scenes": [
    {
      "name": "OSG_Scene",
      "nodes": [
        0
      ]
    }
  ],
  "textures": [
    {
      "sampler": 0,
      "source": 0
    },
    {
      "sampler": 0,
      "source": 1
    }
  ]
}

